<svg xmlns="http://www.w3.org/2000/svg" xmlns:xlink="http://www.w3.org/1999/xlink" viewBox="0 0 928.31 294.3"><defs><style>.cls-1,.cls-4{fill:none;}.cls-2{opacity:0.4;}.cls-3{clip-path:url(#clip-path);}.cls-4{stroke:#000;stroke-width:3px;}.cls-4,.cls-5{stroke-miterlimit:10;}.cls-5{fill:#fcee21;stroke:#ff1d25;stroke-width:2px;}</style><clipPath id="clip-path" transform="translate(-187.56 -189.78)"><rect class="cls-1" x="269" y="222" width="738" height="217"/></clipPath></defs><g id="レイヤー_5" data-name="レイヤー 5" class="cls-2"><g class="cls-3"><path class="cls-4" d="M299.61,290.38" transform="translate(-187.56 -189.78)"/><path class="cls-4" d="M223,275l316.12,13.72" transform="translate(-187.56 -189.78)"/><path class="cls-4" d="M299.61,290.38" transform="translate(-187.56 -189.78)"/><path class="cls-4" d="M208.86,332.41,525,346.13" transform="translate(-187.56 -189.78)"/><path class="cls-4" d="M291.19,324.7" transform="translate(-187.56 -189.78)"/><path class="cls-4" d="M215.9,303.68,532,317.4" transform="translate(-187.56 -189.78)"/><path class="cls-4" d="M278.37,377" transform="translate(-187.56 -189.78)"/><path class="cls-4" d="M201.71,361.54l316.12,13.72" transform="translate(-187.56 -189.78)"/><path class="cls-4" d="M278.37,377" transform="translate(-187.56 -189.78)"/><path class="cls-4" d="M187.62,419l316.12,13.72" transform="translate(-187.56 -189.78)"/><path class="cls-4" d="M270,411.29" transform="translate(-187.56 -189.78)"/><path class="cls-4" d="M194.67,390.27,510.79,404" transform="translate(-187.56 -189.78)"/><path class="cls-4" d="M425.4,260.33" transform="translate(-187.56 -189.78)"/><path class="cls-4" d="M455.6,198,391.85,456.32" transform="translate(-187.56 -189.78)"/><path class="cls-4" d="M425.4,260.33" transform="translate(-187.56 -189.78)"/><path class="cls-4" d="M385.3,194.85,321.55,453.19" transform="translate(-187.56 -189.78)"/><path class="cls-4" d="M383.42,258.46" transform="translate(-187.56 -189.78)"/><path class="cls-4" d="M420.45,196.41,356.7,454.76" transform="translate(-187.56 -189.78)"/><path class="cls-4" d="M319.47,255.62" transform="translate(-187.56 -189.78)"/><path class="cls-4" d="M349.66,193.26,285.91,451.61" transform="translate(-187.56 -189.78)"/><path class="cls-4" d="M319.47,255.62" transform="translate(-187.56 -189.78)"/><path class="cls-4" d="M279.36,190.14,215.62,448.49" transform="translate(-187.56 -189.78)"/><path class="cls-4" d="M277.48,253.76" transform="translate(-187.56 -189.78)"/><path class="cls-4" d="M314.51,191.7,250.76,450.05" transform="translate(-187.56 -189.78)"/><path class="cls-4" d="M230.06,246,546.18,259.7" transform="translate(-187.56 -189.78)"/><path class="cls-4" d="M237.1,217.25,553.22,231" transform="translate(-187.56 -189.78)"/><path class="cls-4" d="M490.3,199.33,426.55,457.68" transform="translate(-187.56 -189.78)"/><path class="cls-4" d="M525.46,200.86,461.71,459.21" transform="translate(-187.56 -189.78)"/><path class="cls-4" d="M581,302.69" transform="translate(-187.56 -189.78)"/><path class="cls-4" d="M504.36,287.27,820.48,301" transform="translate(-187.56 -189.78)"/><path class="cls-4" d="M581,302.69" transform="translate(-187.56 -189.78)"/><path class="cls-4" d="M490.27,344.73l316.12,13.72" transform="translate(-187.56 -189.78)"/><path class="cls-4" d="M572.6,337" transform="translate(-187.56 -189.78)"/><path class="cls-4" d="M497.32,316l316.12,13.72" transform="translate(-187.56 -189.78)"/><path class="cls-4" d="M559.78,389.29" transform="translate(-187.56 -189.78)"/><path class="cls-4" d="M483.13,373.86l316.11,13.72" transform="translate(-187.56 -189.78)"/><path class="cls-4" d="M559.78,389.29" transform="translate(-187.56 -189.78)"/><path class="cls-4" d="M469,431.32,785.15,445" transform="translate(-187.56 -189.78)"/><path class="cls-4" d="M551.36,423.6" transform="translate(-187.56 -189.78)"/><path class="cls-4" d="M476.08,402.59,792.2,416.31" transform="translate(-187.56 -189.78)"/><path class="cls-4" d="M706.81,272.64" transform="translate(-187.56 -189.78)"/><path class="cls-4" d="M737,210.28,673.26,468.63" transform="translate(-187.56 -189.78)"/><path class="cls-4" d="M706.81,272.64" transform="translate(-187.56 -189.78)"/><path class="cls-4" d="M666.71,207.16,603,465.51" transform="translate(-187.56 -189.78)"/><path class="cls-4" d="M664.83,270.78" transform="translate(-187.56 -189.78)"/><path class="cls-4" d="M701.86,208.72,638.11,467.07" transform="translate(-187.56 -189.78)"/><path class="cls-4" d="M600.88,267.94" transform="translate(-187.56 -189.78)"/><path class="cls-4" d="M631.07,205.58,567.33,463.93" transform="translate(-187.56 -189.78)"/><path class="cls-4" d="M600.88,267.94" transform="translate(-187.56 -189.78)"/><path class="cls-4" d="M560.78,202.46,497,460.81" transform="translate(-187.56 -189.78)"/><path class="cls-4" d="M558.9,266.08" transform="translate(-187.56 -189.78)"/><path class="cls-4" d="M595.92,204,532.18,462.37" transform="translate(-187.56 -189.78)"/><path class="cls-4" d="M511.47,258.3,827.59,272" transform="translate(-187.56 -189.78)"/><path class="cls-4" d="M518.51,229.57l316.12,13.72" transform="translate(-187.56 -189.78)"/><path class="cls-4" d="M771.71,211.65,708,470" transform="translate(-187.56 -189.78)"/><path class="cls-4" d="M806.87,213.18,743.12,471.52" transform="translate(-187.56 -189.78)"/><path class="cls-4" d="M862.19,314.9" transform="translate(-187.56 -189.78)"/><path class="cls-4" d="M785.53,299.47l316.12,13.72" transform="translate(-187.56 -189.78)"/><path class="cls-4" d="M862.19,314.9" transform="translate(-187.56 -189.78)"/><path class="cls-4" d="M771.44,356.93l316.12,13.72" transform="translate(-187.56 -189.78)"/><path class="cls-4" d="M853.77,349.22" transform="translate(-187.56 -189.78)"/><path class="cls-4" d="M778.49,328.2l316.12,13.72" transform="translate(-187.56 -189.78)"/><path class="cls-4" d="M841,401.49" transform="translate(-187.56 -189.78)"/><path class="cls-4" d="M764.3,386.06l316.12,13.72" transform="translate(-187.56 -189.78)"/><path class="cls-4" d="M841,401.49" transform="translate(-187.56 -189.78)"/><path class="cls-4" d="M750.2,443.53l316.12,13.72" transform="translate(-187.56 -189.78)"/><path class="cls-4" d="M832.54,435.81" transform="translate(-187.56 -189.78)"/><path class="cls-4" d="M757.25,414.8l316.12,13.72" transform="translate(-187.56 -189.78)"/><path class="cls-4" d="M988,284.85" transform="translate(-187.56 -189.78)"/><path class="cls-4" d="M1018.18,222.49,954.43,480.84" transform="translate(-187.56 -189.78)"/><path class="cls-4" d="M988,284.85" transform="translate(-187.56 -189.78)"/><path class="cls-4" d="M947.88,219.37,884.13,477.72" transform="translate(-187.56 -189.78)"/><path class="cls-4" d="M946,283" transform="translate(-187.56 -189.78)"/><path class="cls-4" d="M983,220.93,919.28,479.28" transform="translate(-187.56 -189.78)"/><path class="cls-4" d="M882.05,280.14" transform="translate(-187.56 -189.78)"/><path class="cls-4" d="M912.24,217.78,848.5,476.13" transform="translate(-187.56 -189.78)"/><path class="cls-4" d="M882.05,280.14" transform="translate(-187.56 -189.78)"/><path class="cls-4" d="M842,214.66,778.2,473" transform="translate(-187.56 -189.78)"/><path class="cls-4" d="M840.07,278.28" transform="translate(-187.56 -189.78)"/><path class="cls-4" d="M877.09,216.22,813.35,474.57" transform="translate(-187.56 -189.78)"/><path class="cls-4" d="M792.64,270.5l316.12,13.72" transform="translate(-187.56 -189.78)"/><path class="cls-4" d="M799.69,241.77l316.11,13.72" transform="translate(-187.56 -189.78)"/><path class="cls-4" d="M1052.88,223.85,989.13,482.2" transform="translate(-187.56 -189.78)"/><path class="cls-4" d="M1088,225.38l-63.75,258.35" transform="translate(-187.56 -189.78)"/></g></g><g id="レイヤー_6" data-name="レイヤー 6"><g id="レイヤー_1" data-name="レイヤー 1"><path d="M451.44,236.94c4.85,2.44,9.07,6.43,8.34,11.85-1.26,9.35-2.92,28.46-2.92,29.51a12,12,0,0,0,0,2.11c4.85-1.21,11.72-6.16,14.77-7.38,7.29-.6,18.57,2.89,23.44,8.36h0c1.82,3,2.12,6.21.91,7.42-1.82,1.83-6.08,5-12.76,7.44-7.28,2.43-22.11,7.49-26.36,10.52v0c-.61,4.24-.29.14-.29,5l-.76,8.71c10.93-.59,38.89-10.29,48.62-10.29q13.66,0,22.77,4.55t9.11,13.67q0,5.47-8.2,7.29c-22.47-3.64-60,6.49-73.36,5.88-1.05,14.77-2.11,35.83-2.11,47.87,0,13.32-1.05,28.09-4.62,32.93h0a10.3,10.3,0,0,1-4.86,3.59l-1.46,0c-4.87-3.12-7.44-5-8-18.95-1.22-15.17-1-40.58-1.06-63l-5.27.8h0c-5.47,0-10.68,2.06-17.36,3.27A156.34,156.34,0,0,0,389,353.51q-20.06,7.31-31,6.38l-5.61-2.46a26.84,26.84,0,0,1-3.17-2.11c-3.16-2.11-5.55-4-5.76-8.22,4.26-3.64,16.31-7.61,27.92-9.72h0l13-3.91h0c10.17-3.47,21.41-7.81,28.1-10.85h0c6.67-4.24,10-7.7,14.28-11.34h0a54.79,54.79,0,0,0,5.51-5.61c-19,5-23.81,8-33.52,11.69-8.88,3.55-15.83,6.33-17.94,7.38-.94.47-12.35,4.22-12.66,4.22-2.11,0-3.16,1.06-6.28-4.58-1.22-2.42,4.06-7,5.28-9.4l12.61-18.72c4.53-7.93,6.63-9.78,10-16.29a6.46,6.46,0,0,0,.23-4.81c-1-2.35-2-4.75-1.3-8,.49-2.31-.34-1.33,4.74-1.46.15,0,.07.08.22.06,11.39-2.16,25.1,12,25.1,16.82a11,11,0,0,1-1.05,4.22c-4.81,4.49-1.06,1.06-5.28,4.22h0c.08-.58.05-.06.62-.2,20.51-5.08,7.05-1.72,18.37-5.05.55-15.9,0-17.95-.43-33-.06-2.19-4.84-5-5.9-10.28-1-2,1.59-5.4,5.58-7.82a2.34,2.34,0,0,1,1-.31C439.47,233.76,446.68,234,451.44,236.94ZM410,326c13.07-2.84,16-4,27.65-6a.39.39,0,0,0,.35-.36V313C426.07,319.56,421,322.16,410,326Z" transform="translate(-187.56 -189.78)"/><path d="M695.07,272.4c1.13,1.22,1,6.18-.28,9.21a4.13,4.13,0,0,1-2.93,2.41c-14.75,3.18-30.12,1.88-43.42,3.23-2.65.27-3.52,2.78-3.55,5.44-.15,13.83-1.18,18.35-1.18,26.2,0,3.95-.71,11-1,27.83v2.07a72.1,72.1,0,0,1-.51,8.95c-.29,2.83.91,5.52,3.75,5.64l56.35-8a4.25,4.25,0,0,1,1.22.23c8.23,2.85,22.53,9.11,26.42,14.65a52.72,52.72,0,0,1,3.71,5.53c1.2,2.14.31,6.88-1.9,7.93-3.71,1.77-10,3.29-14.62,2.5a5.06,5.06,0,0,1-.67-.17c-11.77-3.92-22.21-2.21-26.3-3.27-7-1.82-30.68.71-48.88.71-18.77.57-41,4.83-45,6.54-4.52,1.69-13,6.55-23.71,8.25-.16,0,.16,0,0,0-8.36.48-19-6-33.84-13a16.5,16.5,0,0,1-3.69-2.4c-.67-1.05,5-3.64,6.84-3.64l7,.78a4.34,4.34,0,0,0,1.39-.08c19-4.31,46.64-11.19,58.31-12.39a4,4,0,0,0,2.08-.8c11.35-8.6,8.3-24.64,9.41-44,0-9.1-.39-26.7-3.23-30.11-11.75-2.8-23.06,5.06-34.42,2.11a4.32,4.32,0,0,1-1.08-.47q-8.18-4.89-13.14-7.37c-2-.65-3-3.65-3.06-6.31a4.17,4.17,0,0,1,4.19-4.31q16.83.06,30.12.83a3.53,3.53,0,0,0,.65,0c24.41-2.32,57-14.84,73.47-15,7.42-.09,14.4,2.23,21.18,10.06C694.84,272.18,695,272.28,695.07,272.4Z" transform="translate(-187.56 -189.78)"/><path d="M831.64,241.15q8.26,5,8.28,14.9c-1.11,5,.69,19.36-2.62,33.14l-2.48,8.28a19,19,0,0,0,6.62-1.65c2.75-1.1,32.9-7.3,34.56-12.82.54-1.1,4,2,10.82,5.57l12.42,4.14q13.23,4.16,14.9,10.76c0,3.87-2.77,6.91-8.28,9.11C891,318.1,879.46,315.32,872,316c-11,1-28.49,2.34-34,4-8.86,13.69-12,36.63-27,53-6.36,6.93-27.79,26.14-36.61,32.21a29.59,29.59,0,0,1-19,6.62q-16.58.84-19.87-12.42.82-1.65,4.14,0c3.85,1.66,6.06,2.22,6.62,1.66a78.75,78.75,0,0,0,33.94-24.83C789,364.11,808,330,806,324c-48,13-49.29,1.76-60.88-10.94-2.22-1.66-2.22-2.48,0-2.48a26.38,26.38,0,0,1,7.45,1.65,59.41,59.41,0,0,0,9.93.83c6.62,0,36.17-5.37,46.66-8.14l3.45-26.52.83-5.79a63.29,63.29,0,0,0-4.14-18.21c-2.77-5.51-4.14-9.65-4.14-12.42l.83-.83a117,117,0,0,0,14.89-5Q823.37,235.36,831.64,241.15Zm5.18,100c21,2.77,60.51,18.66,72.66,29.7q17.38,15.72,21.52,30.62l-.83,5.79c-2.77,1.66-39.52,4.49-42.27,4.49h-1.66q-5,0-19.87-8.28t-14.89-10.76h13.24a5.76,5.76,0,0,0-1.66-5.79c-13.8-11.59-24.06-29.9-32-46.59Z" transform="translate(-187.56 -189.78)"/></g><g id="レイヤー_2" data-name="レイヤー 2"><path class="cls-5" d="M835.64,265.77q-.78,5.42-2.32,27.76A152.35,152.35,0,0,1,831,311.26q13.88-2.31,20.82-3.85,17.71-3.07,20-4.63c2-2.56,4.11-4.11,6.17-4.62q17,3.85,22.36,9.25,5.39,4.62-1.54,8.48-3.87,0-14.65.77-8.49,0-20.82.77-18.5,1.56-33.92,3.86c-1,5.66-2.06,10.54-3.09,14.64q27,24.69,51.66,43.18a148.05,148.05,0,0,0,49.35,24.67c1,1.54.77,3.09-.78,4.63q-12.33,2.31-20.81,3.85-8.49.76-16.19.77-6.18.77-14.65-10.79-24.69-31.61-50.12-61.68-9.26,27.75-27.75,44.72-15.44,16.19-45.49,30.07c-2.58-.52-2.84-1.54-.77-3.09q21.57-11.56,39.32-35.46,16.19-19.26,23.9-53.2-27,6.18-40.09,8.48a43.42,43.42,0,0,1-13.88-4.63c-2.06-2-1.54-3.08,1.54-3.08q8.48.78,54-10,1.53-17,1.54-27.76,0-12.33-.77-20.82-2.31-4.62-4.62-6.16-3.87-5.39-1.55-9.26A34.18,34.18,0,0,1,821,251.9Q840.25,260.39,835.64,265.77Z" transform="translate(-187.56 -189.78)"/><path class="cls-5" d="M669.87,274.25q9.25,3.09,13.88,6.94a7.43,7.43,0,0,1,2.31,5.4q0,2.31-4.62,2.31h-17q-16.19.78-31.61,2.32,4.64,5.4,4.63,6.94,0,33.93-1.54,76.32,33.91-3.06,53.2-4.62,2.31-.76,6.93-4.63,5.38,0,16.2,5.4,10.79,6.18,10.79,9.25c0,2.58-1,4.12-3.08,4.63a23.2,23.2,0,0,1-8.48,0q-15.43-1.54-42.41-2.32-25.44.78-42.41,1.55-19.28,1.54-57.05,10.79a44.17,44.17,0,0,1-6.17,1.54c-1,0-4.62-1.27-10.79-3.85-4.12-2.05-4.37-3.09-.77-3.09.5,0,4.88-1,13.1-3.08q31.61-6.94,57.83-10,0-41.64-1.54-75.56c0-3.59-1.81-5.9-5.4-6.94q-8.49.78-17,2.31-8.49,2.31-12.34,2.32c-1.54,0-4.62-.78-9.25-2.32-2.06-1-2.31-2-.77-3.08q17.73-3.08,35.47-6.94,26.19-4.62,41.63-7.71a26.82,26.82,0,0,0,8.48-5.4A33.1,33.1,0,0,1,669.87,274.25Z" transform="translate(-187.56 -189.78)"/><path class="cls-5" d="M449.36,261.15q1.54,2.31,0,11.56-.76,7.73-1.54,21.59,12.33-3.07,13.88-4.63c2.57-2.56,4.63-3.85,6.17-3.85,8.21,1.54,13.11,3.08,14.65,4.63q10,8.49-3.86,10-19.28,1.54-30.84,3.08l-.77,29.3a331.26,331.26,0,0,1,43.18-5.4l8.48-6.16q5.39-.77,14.65,3.85,9.25,3.87,9.25,9.25a4.54,4.54,0,0,1-2.31,3.86l-5.4.77q-47.82-.76-67.85,3.08l-1.54,49.35q-.78,23.13-2.31,26.21-2.32,6.16-5.4,6.17-4.62,0-5.4-14.65V344.42q-19.27,2.31-61.68,13.1c-2.06.52-4.12,1-6.17,1.54q-3.09,0-11.56-4.62-3.87-2.31,4.63-3.86,40.85-10,74.78-15.42V305.87q-12.34,2.31-30.07,5.39c-3.6,1-5.39.52-5.39-1.54a283.17,283.17,0,0,1-28.53,23.13c-3.08,1-3.86,0-2.31-3.08q21.57-26.2,27-42.41a18.17,18.17,0,0,1-2.31-7.71,12.5,12.5,0,0,0,3.85-.77A18.4,18.4,0,0,1,407,283.51c3.08,3.08,4.63,6.43,4.63,10-2.06,2.06-4.9,5.14-8.49,9.25h5.4l23.9-5.4V268.09a19.17,19.17,0,0,0-1.54-6.94,9.54,9.54,0,0,1-3.08-6.94c0-2.05,1-2.82,3.08-2.31Q444.74,255.76,449.36,261.15Z" transform="translate(-187.56 -189.78)"/></g></g></svg>